<?xml version="1.0" encoding="iso-8859-1"?>
<!-- Uploaded to: SVG Repo, www.svgrepo.com, Generator: SVG Repo Mixer Tools -->
<svg version="1.1" id="Layer_1" xmlns="http://www.w3.org/2000/svg" xmlns:xlink="http://www.w3.org/1999/xlink" 
	 viewBox="0 0 512 512" xml:space="preserve">
<rect x="10.199" y="92.17" style="fill:#FFBA57;" width="84.194" height="327.649"/>
<rect x="94.394" y="92.17" style="fill:#E8655A;" width="84.092" height="327.649"/>
<polygon style="fill:#E6E6E6;" points="178.486,419.827 178.486,335.633 478.916,335.633 501.801,360.496 497.563,393.552 
	474.678,419.827 "/>
<g>
	<path style="fill:#603813;" d="M10.199,81.974C4.566,81.974,0,86.541,0,92.173v327.654c0,5.632,4.566,10.199,10.199,10.199h464.479
		c2.95,0,5.754-1.277,7.691-3.501l22.885-26.275c1.325-1.521,2.168-3.4,2.425-5.401l4.238-33.056
		c0.382-2.986-0.574-5.989-2.613-8.204l-22.885-24.863c-1.932-2.098-4.653-3.292-7.504-3.292H188.685V92.173
		c0-5.632-4.566-10.199-10.199-10.199H10.199z M20.398,102.372h63.795v307.255H20.398V102.372z M168.287,409.628h-63.694V102.372
		h63.694V409.628z M487.84,389.186l-17.804,20.441H188.685v-63.795h285.757l16.638,18.077L487.84,389.186z"/>
	<path style="fill:#603813;" d="M356.016,384.2H206.84c-5.633,0-10.199,4.567-10.199,10.199c0,5.632,4.566,10.199,10.199,10.199
		h149.177c5.632,0,10.199-4.567,10.199-10.199C366.216,388.767,361.648,384.2,356.016,384.2z"/>
	<path style="fill:#603813;" d="M387.377,384.2h-4.238c-5.632,0-10.199,4.567-10.199,10.199c0,5.632,4.567,10.199,10.199,10.199
		h4.238c5.632,0,10.199-4.567,10.199-10.199C397.576,388.767,393.009,384.2,387.377,384.2z"/>
</g>
</svg>